<svg xmlns="http://www.w3.org/2000/svg" width="247" height="247" style="shape-rendering:geometricPrecision;text-rendering:geometricPrecision;image-rendering:optimizeQuality;fill-rule:evenodd;clip-rule:evenodd">
    <path style="opacity:.018" fill="#ffeed8" d="M121.5-.5h4c8.237.784 16.571 1.95 25 3.5 6.745 1.303 13.079 3.47 19 6.5-19.765-6.818-40.099-9.485-61-8l13-2Z"/>
    <path style="opacity:.016" fill="#ffe9d3" d="M108.5 1.5c-5.091 1.629-10.424 2.629-16 3 5.025-2.004 10.358-3.004 16-3Z"/>
    <path style="opacity:1" fill="#f90401" d="M108.5 1.5c20.901-1.485 41.235 1.182 61 8 .992-.172 1.658.162 2 1 3.682 2.508 7.682 4.508 12 6 .992-.172 1.658.162 2 1 .473 1.406 1.473 2.073 3 2 .992-.172 1.658.162 2 1 .473 1.406 1.473 2.073 3 2 .667 0 1 .333 1 1 .473 1.406 1.473 2.073 3 2 .667 0 1 .333 1 1 .473 1.406 1.473 2.073 3 2a6.544 6.544 0 0 1 3 3c3 3.667 6.333 7 10 10 1 .333 1.667 1 2 2 .58 2.249 1.913 3.915 4 5 .238 1.904 1.238 3.238 3 4-.073 1.527.594 2.527 2 3-.073 1.527.594 2.527 2 3-.073 1.527.594 2.527 2 3 1.508 1.681 2.508 3.681 3 6-.073 1.527.594 2.527 2 3 2.237 4.034 3.904 8.368 5 13-.241 2.398.426 4.398 2 6 .24 4.62 1.24 8.954 3 13v20H2.5a553.74 553.74 0 0 1 1-20c.827-4.307 1.493-8.64 2-13 1.574-1.602 2.24-3.602 2-6 2.269-7.867 5.602-15.2 10-22 1.406-.473 2.073-1.473 2-3 1.406-.473 2.073-1.473 2-3 1.406-.473 2.073-1.473 2-3 1.406-.473 2.073-1.473 2-3 .333-1 1-1.667 2-2 1.762-.762 2.762-2.096 3-4 .333-1 1-1.667 2-2 3.667-3 7-6.333 10-10 2.59-.92 4.59-2.586 6-5 1.904-.238 3.238-1.238 4-3 1.527.073 2.527-.594 3-2 1.527.073 2.527-.594 3-2 1.527.073 2.527-.594 3-2 .342-.838 1.008-1.172 2-1 4.318-1.492 8.318-3.492 12-6 5.301-2.769 10.968-4.769 17-6 5.576-.371 10.909-1.371 16-3Z"/>
    <path style="opacity:.082" fill="#ffe6c9" d="M171.5 10.5c4.586.96 8.586 2.96 12 6-4.318-1.492-8.318-3.492-12-6Z"/>
    <path style="opacity:.094" fill="#ffe2c4" d="M75.5 10.5c-3.682 2.508-7.682 4.508-12 6 3.414-3.04 7.414-5.04 12-6Z"/>
    <path style="opacity:.004" fill="#ffebd5" d="M185.5 17.5c1.527-.073 2.527.594 3 2-1.527.073-2.527-.594-3-2Z"/>
    <path style="opacity:.541" fill="#fed7b2" d="M61.5 17.5c-.473 1.406-1.473 2.073-3 2 .473-1.406 1.473-2.073 3-2Z"/>
    <path style="opacity:.886" fill="#f3a674" d="M58.5 19.5c-.473 1.406-1.473 2.073-3 2 .473-1.406 1.473-2.073 3-2Z"/>
    <path style="opacity:.004" fill="#ffedd7" d="M190.5 20.5c1.527-.073 2.527.594 3 2-1.527.073-2.527-.594-3-2Z"/>
    <path style="opacity:.714" fill="#fbbb8c" d="M55.5 21.5c-.473 1.406-1.473 2.073-3 2 .473-1.406 1.473-2.073 3-2Z"/>
    <path style="opacity:.016" fill="#ffe6cc" d="M194.5 23.5c1.527-.073 2.527.594 3 2-1.527.073-2.527-.594-3-2Z"/>
    <path style="opacity:.588" fill="#fdc599" d="M52.5 23.5c-.762 1.762-2.096 2.762-4 3 .762-1.762 2.096-2.762 4-3Z"/>
    <path style="opacity:.02" fill="#ffe5cb" d="M198.5 26.5c1.527-.073 2.527.594 3 2-1.527.073-2.527-.594-3-2Z"/>
    <path style="opacity:.878" fill="#f4a476" d="M48.5 26.5c-1.41 2.414-3.41 4.08-6 5 1.41-2.414 3.41-4.08 6-5Z"/>
    <path style="opacity:.004" fill="#ffd9b9" d="M204.5 31.5c4.333 2.333 7.667 5.667 10 10-3.667-3-7-6.333-10-10Z"/>
    <path style="opacity:.639" fill="#fccca0" d="M42.5 31.5c-3 3.667-6.333 7-10 10 2.333-4.333 5.667-7.667 10-10Z"/>
    <path style="opacity:.89" fill="#f9a77b" d="M30.5 43.5c-.238 1.904-1.238 3.238-3 4 .238-1.904 1.238-3.238 3-4Z"/>
    <path style="opacity:.322" fill="#fecaa2" d="M216.5 43.5c2.087 1.085 3.42 2.751 4 5-2.087-1.085-3.42-2.751-4-5Z"/>
    <path style="opacity:.624" fill="#f9be92" d="M220.5 48.5c1.762.762 2.762 2.096 3 4-1.762-.762-2.762-2.096-3-4Z"/>
    <path style="opacity:.341" fill="#ffd9b6" d="M25.5 49.5c.073 1.527-.594 2.527-2 3-.073-1.527.594-2.527 2-3Z"/>
    <path style="opacity:.478" fill="#f9bb8f" d="M23.5 52.5c.073 1.527-.594 2.527-2 3-.073-1.527.594-2.527 2-3Z"/>
    <path style="opacity:.478" fill="#f7bd8d" d="M223.5 52.5c1.406.473 2.073 1.473 2 3-1.406-.473-2.073-1.473-2-3Z"/>
    <path style="opacity:.4" fill="#ffd0a8" d="M21.5 55.5c.073 1.527-.594 2.527-2 3-.073-1.527.594-2.527 2-3Z"/>
    <path style="opacity:.396" fill="#fed2a9" d="M225.5 55.5c1.406.473 2.073 1.473 2 3-1.406-.473-2.073-1.473-2-3Z"/>
    <path style="opacity:.318" fill="#fdd4af" d="M19.5 58.5c.073 1.527-.594 2.527-2 3-.073-1.527.594-2.527 2-3Z"/>
    <path style="opacity:.314" fill="#fed5b0" d="M227.5 58.5c1.406.473 2.073 1.473 2 3-1.406-.473-2.073-1.473-2-3Z"/>
    <path style="opacity:.184" fill="#ffe1c2" d="M232.5 67.5c1.406.473 2.073 1.473 2 3-1.406-.473-2.073-1.473-2-3Z"/>
    <path style="opacity:.973" fill="#efa77b" d="M7.5 83.5c.24 2.398-.426 4.398-2 6 .095-2.286.762-4.286 2-6Z"/>
    <path style="opacity:1" fill="#f2a77b" d="M239.5 83.5c1.238 1.714 1.905 3.714 2 6-1.574-1.602-2.241-3.602-2-6Z"/>
    <path style="opacity:.776" fill="#fbc69e" d="M5.5 89.5a177.944 177.944 0 0 1-2 13h-1c.24-4.62 1.24-8.954 3-13Z"/>
    <path style="opacity:.773" fill="#fccca6" d="M241.5 89.5c1.76 4.046 2.76 8.38 3 13-1.76-4.046-2.76-8.38-3-13Z"/>
    <path style="opacity:1" fill="#d73722" d="M2.5 102.5h1a553.74 553.74 0 0 0-1 20h242v-20l2 7v25h-1v-11H1.5c.078-7.015.411-14.015 1-21Z"/>
    <path style="opacity:1" fill="#030202" d="M1.5 123.5h244v11c-.838 17.706-5.838 34.039-15 49a28.208 28.208 0 0 1-4 1.5c.457.414.791.914 1 1.5-2.36 2.198-3.693 4.865-4 8-.624 2.254-1.957 3.921-4 5l-2 1c-2.412.194-3.412 1.527-3 4a4.934 4.934 0 0 0-3 .5c.752.671 1.086 1.504 1 2.5a45.408 45.408 0 0 1-8 8 8.43 8.43 0 0 0-4 .5c-1.333.667-1.333 1.333 0 2a4.934 4.934 0 0 1-3 .5v3c-8.576 7.125-18.243 12.459-29 16-3.276-.356-5.943.644-8 3-5.731 2.401-11.731 3.735-18 4a369.28 369.28 0 0 1-31 1h-1c-3.767-1.295-7.767-1.961-12-2-12.543-2.178-24.21-6.512-35-13-.473-1.406-1.473-2.073-3-2-.992.172-1.658-.162-2-1-.473-1.406-1.473-2.073-3-2-.762-1.762-2.096-2.762-4-3-.762-1.762-2.096-2.762-4-3-1.41-2.414-3.41-4.081-6-5a6.544 6.544 0 0 1-3-3c-1.333-2-3-3.667-5-5-1.667-1-3-2.333-4-4 .073-1.527-.594-2.527-2-3a27.68 27.68 0 0 1-6-8c.073-1.527-.594-2.527-2-3 .073-1.527-.594-2.527-2-3-1.508-1.681-2.508-3.681-3-6-.16-1.653-.826-2.986-2-4-2.766-4.617-4.766-9.617-6-15-.065-2.928-.732-5.595-2-8-1.413-2.719-2.08-5.719-2-9a301.945 301.945 0 0 1-1-20Z"/>
    <path style="opacity:.004" fill="#eee4c9" d="M2.5 102.5a288.307 288.307 0 0 0-1 21c.112 6.68.446 13.347 1 20-1.525-6.43-2.192-13.096-2-20-.167-7.23.5-14.23 2-21Z"/>
    <path style="opacity:.016" fill="#deddc1" d="M4.5 152.5c1.268 2.405 1.935 5.072 2 8-1.54-2.338-2.206-5.005-2-8Z"/>
    <path style="opacity:.173" fill="#d6d6b4" d="M12.5 175.5c1.174 1.014 1.84 2.347 2 4-1.604-.787-2.27-2.12-2-4Z"/>
    <path style="opacity:.118" fill="#dcdac0" d="M17.5 185.5c1.406.473 2.073 1.473 2 3-1.406-.473-2.073-1.473-2-3Z"/>
    <path style="opacity:.004" fill="#dfddc5" d="M19.5 188.5c1.406.473 2.073 1.473 2 3-1.406-.473-2.073-1.473-2-3Z"/>
    <path style="opacity:1" fill="#605f4e" d="M230.5 183.5a60.05 60.05 0 0 1-7 11c.307-3.135 1.64-5.802 4-8a3.647 3.647 0 0 0-1-1.5c1.401-.41 2.734-.91 4-1.5Z"/>
    <path style="opacity:.031" fill="#d1d0b4" d="M27.5 199.5c1.406.473 2.073 1.473 2 3-1.406-.473-2.073-1.473-2-3Z"/>
    <path style="opacity:.008" fill="#d2d1b8" d="M219.5 199.5c.073 1.527-.594 2.527-2 3v-2l2-1Z"/>
    <path style="opacity:1" fill="#403d30" d="M217.5 200.5v2c-1.333 2-3 3.667-5 5 .086-.996-.248-1.829-1-2.5a4.934 4.934 0 0 1 3-.5c-.412-2.473.588-3.806 3-4Z"/>
    <path style="opacity:.012" fill="#d2d1b2" d="M33.5 206.5c2 1.333 3.667 3 5 5-2.667-.667-4.333-2.333-5-5Z"/>
    <path style="opacity:.973" fill="#919173" d="M41.5 214.5c2.59.919 4.59 2.586 6 5-2.59-.919-4.59-2.586-6-5Z"/>
    <path style="opacity:1" fill="#656152" d="M204.5 215.5c-1.734 2.7-4.068 4.7-7 6v-3a4.934 4.934 0 0 0 3-.5c-1.333-.667-1.333-1.333 0-2a8.43 8.43 0 0 1 4-.5Z"/>
    <path style="opacity:.78" fill="#92906d" d="M47.5 219.5c1.904.238 3.238 1.238 4 3-1.904-.238-3.238-1.238-4-3Z"/>
    <path style="opacity:.714" fill="#a4a27a" d="M51.5 222.5c1.904.238 3.238 1.238 4 3-1.904-.238-3.238-1.238-4-3Z"/>
    <path style="opacity:.4" fill="#c0c09b" d="M55.5 225.5c1.527-.073 2.527.594 3 2-1.527.073-2.527-.594-3-2Z"/>
    <path style="opacity:.408" fill="#c0c098" d="M60.5 228.5c1.527-.073 2.527.594 3 2-1.527.073-2.527-.594-3-2Z"/>
    <path style="opacity:1" fill="#797760" d="M168.5 237.5c-2.39 1.52-5.057 2.52-8 3 2.057-2.356 4.724-3.356 8-3Z"/>
    <path style="opacity:.345" fill="#d5d4b0" d="M98.5 243.5c4.233.039 8.233.705 12 2-4.264.156-8.264-.511-12-2Z"/>
    <path style="opacity:.357" fill="#e7e7c4" d="m142.5 244.5-7 2h-24v-1a369.28 369.28 0 0 0 31-1Z"/>
</svg>
